<svg width="656" height="657" viewBox="0 0 656 657" fill="none" xmlns="http://www.w3.org/2000/svg">
<rect width="656" height="657" rx="328" fill="white"/>
<path d="M117.886 328.642L142.512 271.067H169.027L129.727 352.754L129.642 396H105.616L105.53 351.724L66.8316 271.067H93.2598L117.886 328.642ZM260.496 414.62H182.241V396H260.496V414.62ZM368.697 396H344.671L309.92 315.428V396H285.637V271.067H309.92L344.414 351.295L344.5 271.067H368.697V396ZM471.578 414.62H393.323V396H471.578V414.62ZM558.843 369.915H521.346L513.967 396H488.568L529.497 271.067H551.378L591.535 396H566.137L558.843 369.915ZM527.266 349.407H553.18L540.395 303.415L527.266 349.407Z" fill="black"/>
<circle cx="328" cy="328" r="318" stroke="black" stroke-width="20"/>
</svg>
