<svg width="143" height="143" viewBox="0 0 143 143" fill="none" xmlns="http://www.w3.org/2000/svg">
<path d="M77.6252 11.9166C84.3283 11.9345 87.7305 11.9703 90.668 12.0537L91.8239 12.0954C93.1586 12.143 94.4754 12.2026 96.0662 12.2741C102.406 12.572 106.732 13.573 110.527 15.0448C114.46 16.5582 117.772 18.6078 121.085 21.9147C124.116 24.8923 126.461 28.4955 127.955 32.4729C129.427 36.2683 130.428 40.5941 130.726 46.9397C130.797 48.5246 130.857 49.8414 130.905 51.182L130.94 52.338C131.03 55.2695 131.066 58.6717 131.077 65.3748L131.083 69.8197V77.6251C131.098 81.9712 131.052 86.3172 130.946 90.662L130.911 91.8179C130.863 93.1585 130.803 94.4753 130.732 96.0602C130.434 102.406 129.421 106.726 127.955 110.527C126.461 114.504 124.116 118.108 121.085 121.085C118.108 124.116 114.504 126.461 110.527 127.955C106.732 129.427 102.406 130.428 96.0662 130.726L91.8239 130.905L90.668 130.94C87.7305 131.024 84.3283 131.065 77.6252 131.077L73.1803 131.083H65.3808C61.0328 131.099 56.6848 131.053 52.3381 130.946L51.1821 130.911C49.7677 130.857 48.3536 130.795 46.9398 130.726C40.6001 130.428 36.2744 129.427 32.473 127.955C28.4977 126.46 24.8966 124.115 21.9208 121.085C18.8876 118.108 16.541 114.505 15.0448 110.527C13.5731 106.732 12.5721 102.406 12.2742 96.0602L12.0955 91.8179L12.0657 90.662C11.9558 86.3172 11.9062 81.9712 11.9167 77.6251V65.3748C11.9002 61.0288 11.9439 56.6828 12.0478 52.338L12.0895 51.182C12.1372 49.8414 12.1968 48.5246 12.2683 46.9397C12.5662 40.5941 13.5672 36.2743 15.0389 32.4729C16.5386 28.4939 18.8893 24.8905 21.9267 21.9147C24.9008 18.8852 28.4999 16.5407 32.473 15.0448C36.2744 13.573 40.5942 12.572 46.9398 12.2741C48.5247 12.2026 49.8475 12.143 51.1821 12.0954L52.3381 12.0596C56.6828 11.9538 61.0288 11.9081 65.3749 11.9226L77.6252 11.9166ZM71.5 41.7083C63.5988 41.7083 56.0212 44.8471 50.4342 50.4341C44.8471 56.0211 41.7084 63.5987 41.7084 71.5C41.7084 79.4012 44.8471 86.9788 50.4342 92.5659C56.0212 98.1529 63.5988 101.292 71.5 101.292C79.4013 101.292 86.9789 98.1529 92.5659 92.5659C98.153 86.9788 101.292 79.4012 101.292 71.5C101.292 63.5987 98.153 56.0211 92.5659 50.4341C86.9789 44.8471 79.4013 41.7083 71.5 41.7083ZM71.5 53.625C73.8474 53.6246 76.1719 54.0865 78.3407 54.9845C80.5096 55.8824 82.4803 57.1988 84.1405 58.8583C85.8006 60.5179 87.1176 62.4882 88.0162 64.6567C88.9149 66.8253 89.3776 69.1496 89.378 71.497C89.3784 73.8444 88.9165 76.1688 88.0185 78.3377C87.1206 80.5065 85.8042 82.4773 84.1447 84.1374C82.4851 85.7975 80.5148 87.1145 78.3462 88.0132C76.1777 88.9118 73.8534 89.3746 71.506 89.375C66.7653 89.375 62.2187 87.4917 58.8665 84.1395C55.5143 80.7873 53.631 76.2407 53.631 71.5C53.631 66.7592 55.5143 62.2126 58.8665 58.8604C62.2187 55.5082 66.7653 53.625 71.506 53.625M102.787 32.7708C100.812 32.7708 98.9175 33.5555 97.5208 34.9522C96.124 36.349 95.3393 38.2434 95.3393 40.2187C95.3393 42.194 96.124 44.0884 97.5208 45.4852C98.9175 46.8819 100.812 47.6666 102.787 47.6666C104.763 47.6666 106.657 46.8819 108.054 45.4852C109.45 44.0884 110.235 42.194 110.235 40.2187C110.235 38.2434 109.45 36.349 108.054 34.9522C106.657 33.5555 104.763 32.7708 102.787 32.7708Z" fill="black"/>
</svg>
