<svg width="143" height="143" viewBox="0 0 143 143" fill="none" xmlns="http://www.w3.org/2000/svg">
<path d="M113.208 17.875C116.369 17.875 119.4 19.1305 121.635 21.3653C123.869 23.6001 125.125 26.6312 125.125 29.7917V113.208C125.125 116.369 123.869 119.4 121.635 121.635C119.4 123.869 116.369 125.125 113.208 125.125H29.7917C26.6312 125.125 23.6001 123.869 21.3653 121.635C19.1305 119.4 17.875 116.369 17.875 113.208V29.7917C17.875 26.6312 19.1305 23.6001 21.3653 21.3653C23.6001 19.1305 26.6312 17.875 29.7917 17.875H113.208ZM110.229 110.229V78.65C110.229 73.4984 108.183 68.5578 104.54 64.915C100.897 61.2723 95.9566 59.2258 90.805 59.2258C85.7404 59.2258 79.8417 62.3242 76.9817 66.9717V60.3579H60.3579V110.229H76.9817V80.8546C76.9817 76.2667 80.6758 72.5129 85.2638 72.5129C87.4761 72.5129 89.5978 73.3918 91.1622 74.9561C92.7266 76.5205 93.6054 78.6422 93.6054 80.8546V110.229H110.229ZM40.9933 51.0033C43.6482 51.0033 46.1942 49.9487 48.0715 48.0715C49.9487 46.1942 51.0033 43.6482 51.0033 40.9933C51.0033 35.4521 46.5346 30.9238 40.9933 30.9238C38.3227 30.9238 35.7615 31.9846 33.8731 33.8731C31.9846 35.7615 30.9238 38.3227 30.9238 40.9933C30.9238 46.5346 35.4521 51.0033 40.9933 51.0033ZM49.2754 110.229V60.3579H32.7708V110.229H49.2754Z" fill="black"/>
</svg>
