<svg width="1920" height="1080" viewBox="0 0 1920 1080" fill="none" xmlns="http://www.w3.org/2000/svg">
<rect width="1920" height="1080" fill="white"/>
<rect x="835.481" y="143.5" width="249.269" height="235.192" rx="11.7195" stroke="black" stroke-width="5"/>
<rect x="1128.5" y="143.5" width="249.269" height="235.192" rx="11.7195" stroke="black" stroke-width="5"/>
<rect x="545" y="146" width="244.269" height="230.192" rx="9.21953" stroke="black" stroke-width="10"/>
<rect x="837.981" y="424.904" width="244.269" height="230.192" rx="9.21953" stroke="black" stroke-width="10"/>
<rect x="1128.5" y="422.404" width="249.269" height="235.192" rx="11.7195" stroke="black" stroke-width="5"/>
<rect x="835.481" y="701.308" width="249.269" height="235.192" rx="11.7195" stroke="black" stroke-width="5"/>
<rect x="1131" y="703.808" width="244.269" height="230.192" rx="9.21953" stroke="black" stroke-width="10"/>
<rect x="542.5" y="701.308" width="249.269" height="235.192" rx="11.7195" stroke="black" stroke-width="5"/>
<rect x="542.5" y="422.404" width="250.149" height="235.192" rx="11.7195" stroke="black" stroke-width="5"/>
<circle cx="666.5" cy="818.5" r="65.5" fill="#D9D9D9"/>
<circle cx="1252.5" cy="545.5" r="65.5" fill="#D9D9D9"/>
<circle cx="667.5" cy="535.5" r="65.5" fill="#D9D9D9"/>
<circle cx="1253.5" cy="269.5" r="65.5" fill="#D9D9D9"/>
<rect x="1219.77" y="750.297" width="153.317" height="44.8855" transform="rotate(45 1219.77 750.297)" fill="black"/>
<rect x="1188" y="856.411" width="153.317" height="44.8855" transform="rotate(-45 1188 856.411)" fill="black"/>
<rect x="921.766" y="471.297" width="153.317" height="44.8855" transform="rotate(45 921.766 471.297)" fill="black"/>
<rect x="890" y="577.411" width="153.317" height="44.8855" transform="rotate(-45 890 577.411)" fill="black"/>
<rect x="629.766" y="192.297" width="153.317" height="44.8855" transform="rotate(45 629.766 192.297)" fill="black"/>
<rect x="598" y="298.411" width="153.317" height="44.8855" transform="rotate(-45 598 298.411)" fill="black"/>
</svg>
