<svg width="143" height="143" viewBox="0 0 143 143" fill="none" xmlns="http://www.w3.org/2000/svg">
<g clip-path="url(#clip0_863_451)">
<path d="M63.6483 79.6956C63.6483 76.9473 64.9688 72.5769 75.2246 72.5769C78.3684 72.5769 80.3056 72.8048 82.9064 73.388C82.0752 84.1532 76.8065 85.5743 71.6854 85.5743C68.8834 85.5743 63.6483 84.113 63.6483 79.6956Z" fill="black"/>
<path d="M35.3611 125.25H107.889C112.493 125.25 116.909 123.421 120.165 120.165C123.421 116.909 125.25 112.493 125.25 107.889V35.3611C125.25 30.7566 123.421 26.3408 120.165 23.0849C116.909 19.8291 112.493 18 107.889 18H35.3611C30.7566 18 26.3408 19.8291 23.0849 23.0849C19.8291 26.3408 18 30.7566 18 35.3611V107.889C18 112.493 19.8291 116.909 23.0849 120.165C26.3408 123.421 30.7566 125.25 35.3611 125.25ZM57.3205 57.6155C61.1212 52.1859 66.1351 50.0677 73.0729 50.0677C77.9662 50.0677 82.1288 51.7167 85.105 54.8337C88.0745 57.9573 89.7704 62.4216 90.1591 68.126C91.8036 68.8142 93.3185 69.6252 94.7039 70.5592C100.281 74.3063 103.351 79.9101 103.351 86.3317C103.351 99.9859 92.1567 111.844 71.8998 111.844C54.5052 111.844 36.4336 101.722 36.4336 71.5982C36.4336 41.6352 53.9355 31.4062 71.8462 31.4062C80.1179 31.4062 99.5234 32.6262 106.816 56.724L99.9792 58.4936C94.3352 41.3336 82.5042 38.5987 71.6652 38.5987C53.7344 38.5987 43.5992 49.5114 43.5992 72.7377C43.5992 93.5643 54.9275 104.624 71.8998 104.624C85.8624 104.624 96.2724 97.3717 96.2724 86.7472C96.2724 79.5146 90.1994 76.0558 89.8843 76.0558C88.6979 82.2562 85.5206 92.6929 71.5647 92.6929C63.4338 92.6929 56.4156 87.0757 56.4156 79.7157C56.4156 69.2052 66.3899 65.3978 74.266 65.3978C77.2154 65.3978 80.7681 65.5989 82.6248 65.9743C82.6248 62.7702 79.9168 57.287 73.0662 57.287C66.9596 57.287 65.2905 59.2175 63.3466 61.4698L63.1858 61.6508C61.8317 60.7458 57.3205 57.6155 57.3205 57.6155Z" fill="black"/>
</g>
<defs>
<clipPath id="clip0_863_451">
<rect width="107.25" height="107.25" fill="white" transform="translate(18 18)"/>
</clipPath>
</defs>
</svg>
